<svg width="24" height="25" viewBox="0 0 24 25" fill="none" xmlns="http://www.w3.org/2000/svg">
<path d="M23.2266 12.3828L16.0312 5.16406C15.9062 5.05469 15.7617 5 15.5977 5C15.4336 5 15.2891 5.05469 15.1641 5.16406C15.0547 5.28906 15 5.43359 15 5.59766C15 5.76172 15.0547 5.90625 15.1641 6.03125L21.3516 12.1953H1.80469C1.63281 12.1953 1.48828 12.2539 1.37109 12.3711C1.25391 12.4883 1.19531 12.6328 1.19531 12.8047C1.19531 12.9609 1.25391 13.0977 1.37109 13.2148C1.48828 13.332 1.63281 13.3906 1.80469 13.3906H21.3516L15.1875 19.5781C15.0625 19.6875 15 19.8281 15 20C15 20.1719 15.0625 20.3125 15.1875 20.4219C15.2344 20.4844 15.2969 20.5312 15.375 20.5625C15.4531 20.5938 15.5312 20.6094 15.6094 20.6094C15.6875 20.6094 15.7617 20.5938 15.832 20.5625C15.9023 20.5312 15.9688 20.4844 16.0312 20.4219L23.2266 13.2266C23.3359 13.1016 23.3906 12.957 23.3906 12.793C23.3906 12.6289 23.3359 12.4922 23.2266 12.3828Z" fill="#747474"/>
</svg>
