<svg width="39" height="55" viewBox="0 0 39 55" fill="none" xmlns="http://www.w3.org/2000/svg">
<path d="M36.5924 53.7417C36.5924 53.4929 36.5124 53.2885 36.3525 53.1286C36.1925 52.9686 35.9882 52.8886 35.7393 52.8886H5.02978C4.78098 52.8886 4.5766 52.9686 4.41666 53.1286C4.25671 53.2885 4.17674 53.4929 4.17674 53.7417C4.17674 53.9905 4.25671 54.1949 4.41666 54.3548C4.5766 54.5148 4.78098 54.5947 5.02978 54.5947H35.7393C35.9882 54.5947 36.1925 54.5148 36.3525 54.3548C36.5124 54.1949 36.5924 53.9905 36.5924 53.7417ZM1.2444 15.9412C0.888965 16.19 0.542416 16.6609 0.204753 17.354C-0.13291 18.0471 -0.0529371 18.9091 0.444672 19.9398C0.871193 20.7929 1.4932 21.6548 2.3107 22.5256C3.1282 23.3964 4.01679 23.974 4.97647 24.2584C5.47407 24.4005 5.95391 24.445 6.41598 24.3917C6.87804 24.3383 7.30456 24.1873 7.69554 23.9385C8.65522 23.3698 9.62377 22.7567 10.6012 22.0991C11.5787 21.4415 12.2984 20.9528 12.7605 20.6329C13.3292 20.9173 13.9779 21.095 14.7065 21.1661C15.4351 21.2372 16.1727 21.1661 16.9191 20.9528C16.9546 20.9528 16.9724 20.9528 16.9724 20.9528C16.9368 22.3746 16.5548 23.6719 15.8261 24.8448C15.0975 26.0178 13.578 27.6883 11.2677 29.8565C9.1706 31.7758 7.54448 33.9351 6.38932 36.3343C5.23416 38.7334 4.65657 41.0882 4.65657 43.3985C4.65657 44.9269 4.93204 46.3309 5.48296 47.6104C6.03388 48.89 6.82473 50.0096 7.85549 50.9693C7.92657 51.0404 8.01543 51.0937 8.12206 51.1292C8.22869 51.1648 8.33532 51.1826 8.44195 51.1826H32.3272C32.576 51.1826 32.7804 51.1026 32.9403 50.9426C33.1002 50.7827 33.1802 50.5783 33.1802 50.3295C33.1802 50.0807 33.1002 49.8763 32.9403 49.7164C32.7804 49.5564 32.576 49.4765 32.3272 49.4765H8.76185C7.97989 48.6945 7.38454 47.7882 6.97579 46.7574C6.56704 45.7266 6.36266 44.607 6.36266 43.3985C6.36266 41.3726 6.9047 39.2577 7.98877 37.054C9.07285 34.8503 10.5568 32.8777 12.4406 31.136C14.9286 28.8257 16.5903 26.9508 17.4256 25.5113C18.2608 24.0718 18.6785 22.3923 18.6785 20.473C18.6785 20.4374 18.6696 20.4019 18.6518 20.3664C18.634 20.3308 18.6252 20.2953 18.6252 20.2597C19.0872 20.0109 19.5137 19.7266 19.9047 19.4067C20.2957 19.0868 20.6334 18.7136 20.9177 18.2871C21.2731 17.7895 21.6819 16.972 22.144 15.8346C22.606 14.6972 22.5527 13.5598 21.984 12.4224C21.9129 12.2091 21.7619 12.067 21.5308 11.9959C21.2998 11.9248 21.0777 11.9426 20.8644 12.0492C20.6511 12.1203 20.509 12.2713 20.4379 12.5024C20.3668 12.7334 20.3846 12.9555 20.4912 13.1688C20.74 13.6664 20.7755 14.2884 20.5978 15.0348C20.4201 15.7812 20.0647 16.5454 19.5315 17.3274C19.2116 17.7895 18.7851 18.1982 18.252 18.5536C17.7188 18.9091 17.1501 19.1579 16.5459 19.3001C15.9061 19.4778 15.293 19.5311 14.7065 19.46C14.12 19.3889 13.6135 19.2112 13.187 18.9268C13.0448 18.8202 12.8849 18.7669 12.7072 18.7669C12.5295 18.7669 12.3695 18.8202 12.2273 18.9268C12.1918 18.9268 11.5787 19.3445 10.388 20.1798C9.19725 21.015 8.01543 21.7703 6.8425 22.4456C6.62924 22.5878 6.40709 22.6678 6.17606 22.6856C5.94502 22.7033 5.70511 22.6767 5.4563 22.6056C4.78098 22.4279 4.12342 21.9836 3.48364 21.2727C2.84386 20.5618 2.34625 19.851 1.99081 19.1401C1.70647 18.607 1.64426 18.1893 1.80421 17.8872C1.96416 17.5851 2.11522 17.3985 2.25739 17.3274C5.2075 14.7683 7.42008 12.3957 8.89513 10.2098C10.3702 8.02388 11.1433 6.85983 11.2143 6.71766C11.2854 6.61103 11.321 6.5044 11.321 6.39777C11.321 6.29114 11.3032 6.18451 11.2677 6.07788C11.2677 6.04234 11.161 5.66024 10.9478 4.9316C10.7345 4.20296 10.539 3.42989 10.3613 2.61239C11.2499 3.14554 12.4139 3.70535 13.8534 4.29182C15.293 4.87828 16.8124 5.17152 18.4119 5.17152C19.5137 5.17152 20.8999 5.33146 22.5705 5.65136C24.2766 6.00679 25.9116 6.76209 27.4755 7.91725C29.0394 9.07241 30.3723 10.7874 31.4741 13.0622C32.6115 15.3014 33.1802 18.3404 33.1802 22.1791C33.1802 22.2146 33.1624 22.7122 33.1269 23.6719C33.0914 24.6671 32.967 25.9733 32.7537 27.5906C32.5404 29.2078 32.2028 31.0649 31.7407 33.162C31.2786 35.2946 30.6389 37.5161 29.8214 39.8264C29.7503 40.0397 29.7592 40.2529 29.848 40.4662C29.9369 40.6795 30.1057 40.8216 30.3545 40.8927C30.3901 40.9283 30.4345 40.946 30.4878 40.946C30.5411 40.946 30.5855 40.946 30.6211 40.946C30.7988 40.946 30.9587 40.8927 31.1009 40.7861C31.2431 40.6795 31.3497 40.5373 31.4208 40.3596C32.2739 38.0137 32.9314 35.7567 33.3935 33.5885C33.8911 31.4204 34.2465 29.5099 34.4598 27.8571C34.673 26.2044 34.7974 24.8626 34.833 23.8318C34.8685 22.8011 34.8863 22.2502 34.8863 22.1791C34.8863 17.8428 34.211 14.4306 32.8603 11.9426C31.5097 9.45451 29.9191 7.57959 28.0886 6.31779C26.2581 5.056 24.4365 4.26516 22.6238 3.94527C20.7755 3.62538 19.3716 3.46543 18.4119 3.46543C16.2793 3.46543 14.3155 2.92339 12.5206 1.83932C10.7256 0.755241 9.82815 0.195431 9.82815 0.159889C9.68598 0.0888023 9.53492 0.0443726 9.37497 0.0265999C9.21502 0.00882721 9.06396 0.0354881 8.92179 0.106575C8.77962 0.177662 8.6641 0.275406 8.57524 0.399807C8.48638 0.524208 8.44195 0.67527 8.44195 0.852985C8.44195 1.70603 8.58413 2.69236 8.86848 3.81198C9.15282 4.9316 9.38386 5.74022 9.56157 6.23782C9.20614 6.80652 8.32644 8.05054 6.92247 9.96989C5.5185 11.8892 3.62581 13.8797 1.2444 15.9412ZM28.915 2.61239C27.5288 1.68826 26.0271 1.02182 24.4099 0.613068C22.7926 0.204319 20.8822 -5.72205e-05 18.6785 -5.72205e-05C18.4297 -5.72205e-05 18.2253 0.0799141 18.0654 0.239861C17.9054 0.399807 17.8254 0.604183 17.8254 0.852985C17.8254 1.10179 17.9054 1.30616 18.0654 1.46611C18.2253 1.62606 18.4297 1.70603 18.6785 1.70603C20.7045 1.70603 22.4461 1.89263 23.9034 2.26584C25.3607 2.63905 26.7113 3.2344 27.9553 4.0519C28.915 4.72723 29.9102 5.5625 30.941 6.55772C31.9717 7.58847 32.9048 8.8325 33.74 10.2898C34.5753 11.7471 35.2595 13.4531 35.7927 15.408C36.3258 17.3985 36.5924 19.6555 36.5924 22.1791C36.5924 23.4231 36.5213 24.9959 36.3791 26.8975C36.237 28.799 35.7393 31.4204 34.8863 34.7615C34.8508 35.0103 34.8952 35.2324 35.0196 35.4279C35.144 35.6234 35.3128 35.7567 35.5261 35.8278C35.5616 35.8278 35.5972 35.8278 35.6327 35.8278C35.6683 35.8278 35.7038 35.8278 35.7393 35.8278C35.9171 35.8278 36.0859 35.7656 36.2458 35.6412C36.4058 35.5168 36.5213 35.3657 36.5924 35.188C37.4454 31.7047 37.943 28.9856 38.0852 27.0308C38.2274 25.0759 38.2985 23.4586 38.2985 22.1791C38.2985 19.4422 38.0141 17.0253 37.4454 14.9282C36.8412 12.8311 36.0859 10.9918 35.1795 9.41008C34.2732 7.8284 33.2691 6.48663 32.1672 5.38478C31.0654 4.28293 29.9813 3.3588 28.915 2.61239Z" fill="#747474"/>
</svg>
